/* XPM */
static const char * btn1sml_xpm[] = {
"11 11 54 1",
" 	c None",
".	c #F5463D",
"+	c #EF5851",
"@	c #F44B42",
"#	c #FD251B",
"$	c #D8AEAE",
"%	c #DAA6A6",
"&	c #DEA09A",
"*	c #E09090",
"=	c #E38783",
"-	c #EC655E",
";	c #F5483F",
">	c #E28E8A",
",	c #E38985",
"'	c #E7807B",
")	c #E87570",
"!	c #EC6962",
"~	c #EF5C55",
"{	c #F74239",
"]	c #E77C77",
"^	c #E77973",
"/	c #E9716B",
"(	c #EE615A",
"_	c #F2564E",
":	c #FA3026",
"<	c #F40C00",
"[	c #FF1B0F",
"}	c #ED625B",
"|	c #EE5F58",
"1	c #F1544D",
"2	c #FA3228",
"3	c #FF1D11",
"4	c #FF1307",
"5	c #F34F47",
"6	c #F9382F",
"7	c #FA2E24",
"8	c #FE2318",
"9	c #FF1509",
"0	c #EC0B00",
"a	c #FE2116",
"b	c #F73C33",
"c	c #F44D44",
"d	c #F73E35",
"e	c #FE0C00",
"f	c #EF5A53",
"g	c #FB271D",
"h	c #FF1F13",
"i	c #F83A30",
"j	c #E77875",
"k	c #E8736E",
"l	c #FB2B21",
"m	c #E80B00",
"n	c #E38D89",
"o	c #E38B89",
"    .+@#   ",
"  +$%&*=-  ",
" ;&>,')!~{ ",
" ]^)/!(_.:<",
"[}}(|~1{23<",
"4@511;6789<",
"0ab;@5cd:[e",
"0[:;f-|5bge",
" hi1!jk~{l<",
" mb+)n'-;a ",
"   iko'_3  "};
