/* XPM */
static const char * btn1lrg_xpm[] = {
"14 14 75 1",
" 	c None",
".	c #F91C11",
"+	c #F3443B",
"@	c #F24840",
"#	c #F63026",
"$	c #E88984",
"%	c #DCC0C0",
"&	c #DCBCBC",
"*	c #DFB4B3",
"=	c #E1ACAB",
"-	c #E68E8C",
";	c #F24C44",
">	c #EE615A",
",	c #E1ABA9",
"'	c #E3A39F",
")	c #E49A96",
"!	c #E6958E",
"~	c #E78C87",
"{	c #E88580",
"]	c #EA7E76",
"^	c #F05C54",
"/	c #F5392F",
"(	c #E59793",
"_	c #E88782",
":	c #E9807B",
"<	c #EA7A74",
"[	c #EC6E68",
"}	c #EE635C",
"|	c #F05A52",
"1	c #F5352B",
"2	c #EE5F58",
"3	c #E9827D",
"4	c #EB7771",
"5	c #EC706A",
"6	c #ED6963",
"7	c #F1554D",
"8	c #F3463D",
"9	c #F30E03",
"0	c #EB746F",
"a	c #EC6C66",
"b	c #EE655E",
"c	c #EF5C55",
"d	c #F1534B",
"e	c #F8271C",
"f	c #FA180C",
"g	c #F34239",
"h	c #F7291F",
"i	c #FA160A",
"j	c #F20D02",
"k	c #F20C00",
"l	c #F14F47",
"m	c #F05850",
"n	c #F24A42",
"o	c #F5372D",
"p	c #F62C22",
"q	c #F70F03",
"r	c #E80B00",
"s	c #F25048",
"t	c #F0554E",
"u	c #F63228",
"v	c #F82318",
"w	c #FA1106",
"x	c #E40B00",
"y	c #F82116",
"z	c #ED6A63",
"A	c #ED6761",
"B	c #F43B32",
"C	c #FB1105",
"D	c #EB756F",
"E	c #E68C8A",
"F	c #E49C98",
"G	c #EB736D",
"H	c #F34037",
"I	c #E78E87",
"J	c #E59391",
"     .+@#     ",
"   @$%&*=-;   ",
"  >,=')!~{]^  ",
" /((-~_:<[}|1 ",
" 2$3:]456278/ ",
"9055[a6bcd@1e9",
"f2222>>dg/#hij",
"k8l7m^7;ngop.q",
"r.o8st^cmlguvw",
"xy#gd2zaA^nBpC",
" fo@^a]:D}dg# ",
" qol24$E3am8v ",
"  f@b]-F_G^1  ",
"    HDIJ_2    "};
