/* XPM */
static char * btn2lrg_xpm[] = {
"14 14 96 2",
"  	c None",
". 	c #F7ADAC",
"+ 	c #F79F9D",
"@ 	c #F7A19F",
"# 	c #F7A2A1",
"$ 	c #F7A09F",
"% 	c #F7A09E",
"& 	c #F79C9A",
"* 	c #F6B1B0",
"= 	c #F6CBCB",
"- 	c #F5D6D6",
"; 	c #F5D9D9",
"> 	c #F5D3D3",
", 	c #F6C4C2",
"' 	c #F7A5A3",
") 	c #F69B99",
"! 	c #F58D8B",
"~ 	c #F6A8A6",
"{ 	c #F6B3B2",
"] 	c #F6B6B5",
"^ 	c #F6B9B7",
"/ 	c #F6B9B8",
"( 	c #F6B8B7",
"_ 	c #F6B5B4",
": 	c #F6B0AE",
"< 	c #F59E9C",
"[ 	c #F58583",
"} 	c #F26F6C",
"| 	c #F38583",
"1 	c #F38C8A",
"2 	c #F38F8D",
"3 	c #F3918F",
"4 	c #F39290",
"5 	c #F39391",
"6 	c #F38E8C",
"7 	c #F48B89",
"8 	c #F37A77",
"9 	c #F27571",
"0 	c #EF5955",
"a 	c #F06764",
"b 	c #F06A66",
"c 	c #F06C69",
"d 	c #F06D6A",
"e 	c #F16E6B",
"f 	c #F06D69",
"g 	c #F06C68",
"h 	c #F06966",
"i 	c #EF6662",
"j 	c #EF504C",
"k 	c #E93430",
"l 	c #EA413D",
"m 	c #EB4541",
"n 	c #EB4743",
"o 	c #EB4945",
"p 	c #EC4A46",
"q 	c #EC4A47",
"r 	c #EC4B47",
"s 	c #EB4A45",
"t 	c #EB4844",
"u 	c #EB4642",
"v 	c #EB4540",
"w 	c #EA3C37",
"x 	c #E41F1A",
"y 	c #E52621",
"z 	c #E52823",
"A 	c #E52924",
"B 	c #E52B26",
"C 	c #E52C27",
"D 	c #E52722",
"E 	c #E5241F",
"F 	c #E01814",
"G 	c #E11915",
"H 	c #E11A16",
"I 	c #E11B16",
"J 	c #E21B17",
"K 	c #E21B16",
"L 	c #E11A15",
"M 	c #E01915",
"N 	c #DD1B17",
"O 	c #DC1C18",
"P 	c #DC1C17",
"Q 	c #D7201B",
"R 	c #D7221D",
"S 	c #D7221C",
"T 	c #D7211D",
"U 	c #D3241F",
"V 	c #D42420",
"W 	c #D32420",
"X 	c #CF2622",
"Y 	c #CF2824",
"Z 	c #CF2723",
"` 	c #C92C28",
" .	c #CA2C28",
"..	c #C6302C",
"+.	c #C7302C",
"@.	c #C62E2B",
"        . + @ # $ %         ",
"      & * = - ; > , ' )     ",
"    ! ~ { ] ^ / ( _ : < [   ",
"  } | 1 2 3 4 5 4 3 6 7 8 9 ",
"  0 a b c d e e e f g h i j ",
"k l m n o p q r q s t u v w ",
"x y z A A B B C B B A A D E ",
"F G H H I I J J K I H H L M ",
"N O O O O O P P P O O O O O ",
"Q R S S S S S S S S S S S T ",
"  U V W W W W W W W W W V U ",
"  X Y Y Y Y Y Y Y Y Y Y Z   ",
"    `  . . . . . . . . .    ",
"        ..+.+.+.+...@.      "};
