/* XPM */
static char * btn2sml_xpm[] = {
"11 11 63 1",
" 	c None",
".	c #F7AAA9",
"+	c #F7A9A8",
"@	c #F7ADAC",
"#	c #F7ABAA",
"$	c #F7A7A6",
"%	c #F69996",
"&	c #F5BFBE",
"*	c #F6CAC9",
"=	c #F5CECD",
"-	c #F5CDCC",
";	c #F6C5C4",
">	c #F6AFAD",
",	c #F58785",
"'	c #F37875",
")	c #F49694",
"!	c #F49B99",
"~	c #F49D9C",
"{	c #F49F9D",
"]	c #F49D9B",
"^	c #F49997",
"/	c #F48C89",
"(	c #EF5B57",
"_	c #F06562",
":	c #F06B67",
"<	c #F06D6A",
"[	c #F16F6C",
"}	c #F1706D",
"|	c #F06E6B",
"1	c #F06C69",
"2	c #F06965",
"3	c #EF5450",
"4	c #E8302C",
"5	c #E93D39",
"6	c #EA3F3A",
"7	c #EA413C",
"8	c #EA433F",
"9	c #EA423D",
"0	c #EA403C",
"a	c #EA3E39",
"b	c #E93833",
"c	c #E21B16",
"d	c #E31E19",
"e	c #E31F1A",
"f	c #E3201B",
"g	c #E3211B",
"h	c #E3211C",
"i	c #E31F1B",
"j	c #E31D18",
"k	c #DE1A16",
"l	c #DE1B17",
"m	c #D7211C",
"n	c #D7221D",
"o	c #D7211D",
"p	c #D22521",
"q	c #D12420",
"r	c #CB2A26",
"s	c #CB2B27",
"t	c #CB2A27",
"u	c #C62F2B",
"v	c #C7302C",
"w	c #C62F2C",
"x	c #C72E2B",
"   .+@#$   ",
"  %&*=-;>, ",
" ')!~{{]^/ ",
"(_:<[}}|123",
"456788890ab",
"cdefghhfiej",
"kllllllllll",
"mnnnnnnnnno",
" pppppppppq",
" rssssssst ",
"   uvvvwx  "};
