/* XPM */
static const char * darkbtn_xpm[] = {
"20 20 62 1",
" 	c None",
".	c #353535",
"+	c #373737",
"@	c #383838",
"#	c #363636",
"$	c #393939",
"%	c #4C4C4C",
"&	c #6C6C6C",
"*	c #848484",
"=	c #878787",
"-	c #727272",
";	c #525252",
">	c #3B3B3B",
",	c #3E3E3E",
"'	c #5A5A5A",
")	c #929292",
"!	c #B1B1B1",
"~	c #B5B5B5",
"{	c #B3B3B3",
"]	c #9D9D9D",
"^	c #646464",
"/	c #3F3F3F",
"(	c #4E4E4E",
"_	c #7D7D7D",
":	c #A7A7A7",
"<	c #A8A8A8",
"[	c #A9A9A9",
"}	c #8B8B8B",
"|	c #565656",
"1	c #414141",
"2	c #494949",
"3	c #5C5C5C",
"4	c #838383",
"5	c #9E9E9E",
"6	c #8D8D8D",
"7	c #555555",
"8	c #616161",
"9	c #787878",
"0	c #949494",
"a	c #939393",
"b	c #818181",
"c	c #575757",
"d	c #5D5D5D",
"e	c #666666",
"f	c #6A6A6A",
"g	c #7C7C7C",
"h	c #8A8A8A",
"i	c #8C8C8C",
"j	c #828282",
"k	c #6D6D6D",
"l	c #606060",
"m	c #777777",
"n	c #737373",
"o	c #717171",
"p	c #696969",
"q	c #747474",
"r	c #7A7A7A",
"s	c #7B7B7B",
"t	c #797979",
"u	c #7F7F7F",
"v	c #808080",
"w	c #7E7E7E",
"                    ",
"                    ",
"                    ",
"                    ",
"        .+@#        ",
"      $%&*=-;>      ",
"     ,')!~~{]^/     ",
"     (_:<<[<:}|1    ",
"    234]]55]56^%    ",
"    789)000aab^c    ",
"    defghii}jkel    ",
"    ^&kk-mmnk&&e    ",
"     onnn-nnnnop    ",
"     n999m9999q     ",
"      rgggggstn     ",
"       _uuvwg       ",
"                    ",
"                    ",
"                    ",
"                    "};
