/* XPM */
static char * graybtn_xpm[] = {
"20 20 63 1",
" 	c None",
".	c #515151",
"+	c #545454",
"@	c #555555",
"#	c #575757",
"$	c #727272",
"%	c #999999",
"&	c #B2B2B2",
"*	c #B5B5B5",
"=	c #9F9F9F",
"-	c #7A7A7A",
";	c #5B5B5B",
">	c #5D5D5D",
",	c #838383",
"'	c #BEBEBE",
")	c #D7D7D7",
"!	c #D9D9D9",
"~	c #D8D8D8",
"{	c #C8C8C8",
"]	c #909090",
"^	c #5F5F5F",
"/	c #757575",
"(	c #ABABAB",
"_	c #D0D0D0",
":	c #D1D1D1",
"<	c #B8B8B8",
"[	c #7D7D7D",
"}	c #626262",
"|	c #6E6E6E",
"1	c #858585",
"2	c #B1B1B1",
"3	c #C9C9C9",
"4	c #BABABA",
"5	c #8F8F8F",
"6	c #717171",
"7	c #7C7C7C",
"8	c #8C8C8C",
"9	c #A6A6A6",
"0	c #C0C0C0",
"a	c #BFBFBF",
"b	c #AFAFAF",
"c	c #7F7F7F",
"d	c #888888",
"e	c #929292",
"f	c #969696",
"g	c #AAAAAA",
"h	c #B7B7B7",
"i	c #B9B9B9",
"j	c #B0B0B0",
"k	c #9A9A9A",
"l	c #8A8A8A",
"m	c #A5A5A5",
"n	c #A0A0A0",
"o	c #919191",
"p	c #9D9D9D",
"q	c #959595",
"r	c #A1A1A1",
"s	c #A2A2A2",
"t	c #A8A8A8",
"u	c #A7A7A7",
"v	c #ADADAD",
"w	c #ACACAC",
"x	c #AEAEAE",
"                    ",
"                    ",
"                    ",
"                    ",
"        .+@.        ",
"      #$%&*=-;      ",
"     >,')!!~{]^     ",
"     /(___:__<[}    ",
"    |12{{33{3456    ",
"    789'000aab5c    ",
"    defghii<jkel    ",
"    5%kk=mmnk%%o    ",
"     pnnn=nnnn=q    ",
"     rm99m9999s     ",
"      tggggggur     ",
"       (vwxwg       ",
"                    ",
"                    ",
"                    ",
"                    "};
