/* XPM */
static const char * greenbtn_xpm[] = {
"20 21 94 2",
"  	c None",
". 	c #3D5D0D",
"+ 	c #42600F",
"@ 	c #426110",
"# 	c #405F0E",
"$ 	c #446511",
"% 	c #577822",
"& 	c #759346",
"* 	c #8CA663",
"= 	c #8FA867",
"- 	c #7B984D",
"; 	c #5B7D29",
"> 	c #466712",
", 	c #486B12",
"' 	c #64872D",
") 	c #9AB372",
"! 	c #B7CB98",
"~ 	c #BACE9D",
"{ 	c #B9CD9B",
"] 	c #A4BB7F",
"^ 	c #6E903A",
"/ 	c #4A6E12",
"( 	c #5A811D",
"_ 	c #86A853",
": 	c #ADC589",
"< 	c #AFC78B",
"[ 	c #AFC78C",
"} 	c #AEC58A",
"| 	c #93B165",
"1 	c #618824",
"2 	c #4B6F13",
"3 	c #537B18",
"4 	c #689326",
"5 	c #8DB057",
"6 	c #A4C17A",
"7 	c #A4C07B",
"8 	c #A5C17B",
"9 	c #A5C17A",
"0 	c #A4C17B",
"a 	c #95B664",
"b 	c #6F9A2E",
"c 	c #568019",
"d 	c #608B1F",
"e 	c #6D9D26",
"f 	c #81AC45",
"g 	c #9ABC69",
"h 	c #9BBD6B",
"i 	c #9BBD6A",
"j 	c #9ABC6A",
"k 	c #89B151",
"l 	c #6F9F29",
"m 	c #62901F",
"n 	c #699724",
"o 	c #72A428",
"p 	c #75A72E",
"q 	c #86B247",
"r 	c #92BA5B",
"s 	c #94BB5D",
"t 	c #94BB5B",
"u 	c #8BB54F",
"v 	c #78A931",
"w 	c #6C9A25",
"x 	c #6E9F28",
"y 	c #77AC2D",
"z 	c #78AD2D",
"A 	c #78AD2E",
"B 	c #7CAF35",
"C 	c #82B23D",
"D 	c #7EB036",
"E 	c #78AC2D",
"F 	c #70A229",
"G 	c #7CB131",
"H 	c #7DB432",
"I 	c #7DB332",
"J 	c #7CB132",
"K 	c #73A42E",
"L 	c #7FB333",
"M 	c #81B935",
"N 	c #83BA37",
"O 	c #83BA36",
"P 	c #83B936",
"Q 	c #82BA36",
"R 	c #7FB434",
"S 	c #83BA39",
"T 	c #86BD3A",
"U 	c #87BF3A",
"V 	c #87BE3A",
"W 	c #84BC39",
"X 	c #7FB336",
"Y 	c #86BE3A",
"Z 	c #89C13C",
"` 	c #88C23C",
" .	c #8AC23D",
"..	c #89C23B",
"                                        ",
"                                        ",
"                                        ",
"                                        ",
"                . + @ #                 ",
"            $ % & * = - ; >             ",
"          , ' ) ! ~ ~ { ] ^ /           ",
"          ( _ : < < [ < } | 1 2         ",
"        3 4 5 6 7 8 8 9 0 a b c         ",
"        d e f g h h h i j k l m         ",
"        n o p q r s s t u v o w         ",
"        x y z A B C C D A E E F         ",
"          G H H H I H H H H J K         ",
"          L M N O P O N Q O R           ",
"            S T U U U U V W X           ",
"              Y Z `  ...Y               ",
"                                        ",
"                                        ",
"                                        ",
"                                        ",
"                                        "};
