/* XPM */
static char * orangebtn_xpm[] = {
"20 20 90 1",
" 	c None",
".	c #B24C1A",
"+	c #B64F1D",
"@	c #B7511D",
"#	c #B34C19",
"$	c #B9511B",
"%	c #CD652D",
"&	c #E08350",
"*	c #EA976D",
"=	c #EA9A70",
"-	c #E38858",
";	c #D26B34",
">	c #BC551D",
",	c #BF5918",
"'	c #DB7535",
")	c #F1A677",
"!	c #F9C09D",
"~	c #FAC3A2",
"{	c #FAC29F",
"]	c #F4AF84",
"^	c #E17E41",
"/	c #C55B19",
"(	c #DA6D1F",
"_	c #F29756",
":	c #FAB98B",
"<	c #F9BA8E",
"[	c #F9BB8D",
"}	c #FAB98C",
"|	c #F4A268",
"1	c #DF7327",
"2	c #C05E15",
"3	c #CB6816",
"4	c #ED7E23",
"5	c #F79F56",
"6	c #F9B379",
"7	c #FAB379",
"8	c #F9B37A",
"9	c #F8A763",
"0	c #F0852C",
"a	c #D26C18",
"b	c #DD7817",
"c	c #F4871D",
"d	c #F8993D",
"e	c #FAAE63",
"f	c #F9AE65",
"g	c #F9AF65",
"h	c #F9AE64",
"i	c #F9AD64",
"j	c #F8A04A",
"k	c #F58A20",
"l	c #E27C17",
"m	c #E38517",
"n	c #F78F19",
"o	c #F8921F",
"p	c #F99F3A",
"q	c #FAAA4F",
"r	c #FAAB52",
"s	c #FAAB51",
"t	c #F9A341",
"u	c #F89422",
"v	c #E88718",
"w	c #E58C15",
"x	c #F89818",
"y	c #F99818",
"z	c #F99919",
"A	c #F99B1F",
"B	c #F9A029",
"C	c #F9A129",
"D	c #F99C22",
"E	c #EA8F16",
"F	c #F79D14",
"G	c #FAA016",
"H	c #F89E15",
"I	c #E69314",
"J	c #F2A114",
"K	c #FAA614",
"L	c #FAA715",
"M	c #FBA715",
"N	c #F4A215",
"O	c #F6AA12",
"P	c #FBAD13",
"Q	c #FCAE13",
"R	c #FBAD12",
"S	c #F8AB12",
"T	c #EFA212",
"U	c #F5AE11",
"V	c #FAB213",
"W	c #FCB213",
"X	c #FCB313",
"Y	c #F7AD13",
"                    ",
"                    ",
"                    ",
"                    ",
"        .+@#        ",
"      $%&*=-;>      ",
"     ,')!~~{]^/     ",
"     (_:<<<[}|12    ",
"    34566667890a    ",
"    bcdeffghijkl    ",
"    mnopqrsstunv    ",
"    wxyzABCDzyxE    ",
"     FGGGGGGGGHI    ",
"     JKLMMMMMLN     ",
"      OPQQQQRST     ",
"       UVWXVY       ",
"                    ",
"                    ",
"                    ",
"                    "};
