/* XPM */
static const char * sliderind_xpm[] = {
"20 11 3 1",
" 	c #6F6F6F",
".	c #2D2D2D",
"+	c #555555",
"                    ",
" .................. ",
" .................. ",
" .................. ",
" ++++++++++++++++++ ",
"                    ",
" ++++++++++++++++++ ",
" .................. ",
" .................. ",
" .................. ",
"                    "};
