/* XPM */
static char * sliderbk_xpm[] = {
"30 108 159 2",
"  	c #000828",
". 	c #000000",
"+ 	c #222222",
"@ 	c #232222",
"# 	c #232423",
"$ 	c #242423",
"% 	c #242323",
"& 	c #232424",
"* 	c #242424",
"= 	c #242425",
"- 	c #242524",
"; 	c #262625",
"> 	c #252626",
", 	c #262626",
"' 	c #262525",
") 	c #252625",
"! 	c #262726",
"~ 	c #272626",
"{ 	c #262627",
"] 	c #282828",
"^ 	c #282728",
"/ 	c #282827",
"( 	c #272828",
"_ 	c #282727",
": 	c #282929",
"< 	c #282829",
"[ 	c #292828",
"} 	c #2A2A2A",
"| 	c #2A292A",
"1 	c #292A2A",
"2 	c #292A29",
"3 	c #2B2B2B",
"4 	c #2C2C2B",
"5 	c #2B2C2C",
"6 	c #2C2B2B",
"7 	c #2C2C2C",
"8 	c #2C2B2C",
"9 	c #2D2D2D",
"0 	c #2E2E2E",
"a 	c #2E2D2D",
"b 	c #2D2E2E",
"c 	c #2D2D2E",
"d 	c #2E2E2D",
"e 	c #2F2F2F",
"f 	c #303030",
"g 	c #30302F",
"h 	c #302F30",
"i 	c #302F2F",
"j 	c #313131",
"k 	c #313132",
"l 	c #323131",
"m 	c #323132",
"n 	c #323231",
"o 	c #323232",
"p 	c #333433",
"q 	c #333333",
"r 	c #343333",
"s 	c #333434",
"t 	c #343434",
"u 	c #353635",
"v 	c #353536",
"w 	c #353535",
"x 	c #363535",
"y 	c #363636",
"z 	c #383738",
"A 	c #373738",
"B 	c #383837",
"C 	c #383737",
"D 	c #373737",
"E 	c #393939",
"F 	c #393839",
"G 	c #3A3A3A",
"H 	c #3A3A39",
"I 	c #39393A",
"J 	c #393A3A",
"K 	c #3B3B3B",
"L 	c #3B3C3B",
"M 	c #3B3C3C",
"N 	c #3C3C3C",
"O 	c #3B3B3C",
"P 	c #3C3B3B",
"Q 	c #3D3D3D",
"R 	c #3E3E3D",
"S 	c #3D3D3E",
"T 	c #3E3D3E",
"U 	c #3D3E3D",
"V 	c #3E3E3E",
"W 	c #3F3F3F",
"X 	c #3F3E3F",
"Y 	c #404040",
"Z 	c #414141",
"` 	c #404041",
" .	c #404140",
"..	c #3F403F",
"+.	c #403F40",
"@.	c #3F3F40",
"#.	c #40403F",
"$.	c #3F3F3E",
"%.	c #3F3E3E",
"&.	c #3E3F3F",
"*.	c #3E3D3D",
"=.	c #3C3D3C",
"-.	c #3D3D3C",
";.	c #3C3D3D",
">.	c #3C3C3D",
",.	c #3C3B3C",
"'.	c #3C3C3B",
").	c #3A3B3A",
"!.	c #3B3A3B",
"~.	c #3A3B3B",
"{.	c #3A3A3B",
"].	c #393A39",
"^.	c #393938",
"/.	c #383838",
"(.	c #383839",
"_.	c #373838",
":.	c #363737",
"<.	c #373636",
"[.	c #373736",
"}.	c #363736",
"|.	c #363635",
"1.	c #363536",
"2.	c #343534",
"3.	c #343535",
"4.	c #353534",
"5.	c #343334",
"6.	c #323332",
"7.	c #323333",
"8.	c #303031",
"9.	c #313030",
"0.	c #303130",
"a.	c #2F302F",
"b.	c #2F3030",
"c.	c #2E2F2F",
"d.	c #2F2E2F",
"e.	c #2D2E2D",
"f.	c #2C2D2D",
"g.	c #2D2C2D",
"h.	c #2D2D2C",
"i.	c #2A2B2B",
"j.	c #2B2A2B",
"k.	c #2A2A29",
"l.	c #292929",
"m.	c #292928",
"n.	c #292829",
"o.	c #282928",
"p.	c #272727",
"q.	c #272627",
"r.	c #272726",
"s.	c #262727",
"t.	c #252526",
"u.	c #252525",
"v.	c #252524",
"w.	c #252425",
"x.	c #232323",
"y.	c #222323",
"z.	c #232322",
"A.	c #232223",
"B.	c #222223",
"                                                            ",
"                    . . . . . . . . . .                     ",
"                    . + + + + + + + + .                     ",
"                    . + + + + + + @ @ .                     ",
"                    . # $ % & % # * * .                     ",
"                    . * = * - * * - - .                     ",
"                    . ; > ; > , ' ) ) .                     ",
"                    . , ! , , ~ { , , .                     ",
"                    . ] ] ^ / / ( _ _ .                     ",
"                    . : < [ ] ] ] ] ] .                     ",
"                    . } } } } | 1 2 2 .                     ",
"                    . 3 3 3 3 3 3 3 3 .                     ",
"                    . 4 5 5 6 7 7 8 8 .                     ",
"                    . 9 9 9 9 9 9 9 9 .                     ",
"                    . 0 0 a b c d 0 0 .                     ",
"                    . e e e e e e e e .                     ",
"                    . f g f f h f i i .                     ",
"                    . j k k l m n j j .                     ",
"                    . o o o o o o o o .                     ",
"                    . p q r q q s q q .                     ",
"                    . t t t t t t t t .                     ",
"                    . u v w x w x v v .                     ",
"                    . y y y y y y y y .                     ",
"                    . z z A B C z D D .                     ",
"                    . E E F E F E E E .                     ",
"                    . G H E I H J I I .                     ",
"                    . K K K K K K K K .                     ",
"                    . L M N O P K P P .                     ",
"                    . Q Q Q Q Q Q Q Q .                     ",
"                    . R S T T U V V V .                     ",
"                    . W W W W W X X X .                     ",
"                    . Y Y Y Y Y Y Y Y .                     ",
"                    . Z Z Z Z Z Z Z Z .                     ",
"                    . Z Z Z Z Z Z Z Z .                     ",
"                    . Z Z Z Z Z Z Z Z .                     ",
"                    . Z Z Z Z Z Z Z Z .                     ",
"                    . Z Z Z Z Z Z Z Z .                     ",
"                    . Z Z Z Z Z Z Z Z .                     ",
"                    . Z Z Z Z Z Z Z Z .                     ",
"                    . Z Z Z Z Z Z Z Z .                     ",
"                    . Z Z Z Z Z Z Z Z .                     ",
"                    . Z Z Z Z Z Z Z Z .                     ",
"                    . Z Z Z Z Z Z Z Z .                     ",
"                    . Z Z Z Z Z Z Z Z .                     ",
"                    . Z Z Z Z Z Z Z Z .                     ",
"                    . Z Z Z Z Z Z Z Z .                     ",
"                    . Z Z Z Z Z Z Z Z .                     ",
"                    . Z Z Z Z Z Z Z Z .                     ",
"                    . Z Z Z Z Z Z Z Z .                     ",
"                    . Z Z Z Z Z Z Z Z .                     ",
"                    . `  .`  .Y Y Y Y .                     ",
"                    . Y Y Y Y Y Y Y Y .                     ",
"                    . W Y Y ..+.@.#.#..                     ",
"                    . W W $.%.&.W W W .                     ",
"                    . V V V V V V V V .                     ",
"                    . S Q R Q U *.Q Q .                     ",
"                    . Q Q Q Q Q Q Q Q .                     ",
"                    . =.Q -.;.>.;.Q Q .                     ",
"                    . N N ,.'.N N '.'..                     ",
"                    . K L P L K K K K .                     ",
"                    . K K K K K K K K .                     ",
"                    . ).G !.~.~.~.{.{..                     ",
"                    . G G ].I ].J H H .                     ",
"                    . E E E E E E E E .                     ",
"                    . E E E E E E E E .                     ",
"                    . ^./.^./.^./.(.(..                     ",
"                    . /.A _.B B z D D .                     ",
"                    . :.D <.D D [.}.}..                     ",
"                    . y y y y y y y y .                     ",
"                    . y y y y y y y y .                     ",
"                    . v |.u y w x 1.1..                     ",
"                    . 2.3.t 4.4.w t t .                     ",
"                    . t t t t t t t t .                     ",
"                    . t t t t s 5.t t .                     ",
"                    . s p r p q r p p .                     ",
"                    . 6.6.o o o 7.6.6..                     ",
"                    . o o o o o o o o .                     ",
"                    . o o n o o k o o .                     ",
"                    . j j j j j j j j .                     ",
"                    . 8.9.0.0.8.f f f .                     ",
"                    . e a.h a.b.e f f .                     ",
"                    . e e e e e e e e .                     ",
"                    . e c.d.e e e e e .                     ",
"                    . 0 0 0 0 0 0 0 0 .                     ",
"                    . a 9 9 a c e.9 9 .                     ",
"                    . 9 9 9 9 9 9 9 9 .                     ",
"                    . 9 f.g.f.9 f.h.h..                     ",
"                    . 4 7 7 7 5 7 5 5 .                     ",
"                    . 3 3 3 3 3 3 3 3 .                     ",
"                    . 3 3 3 3 3 3 3 3 .                     ",
"                    . i.} 3 } j.j.i.i..                     ",
"                    . k.1 | | } k.2 2 .                     ",
"                    . l.l.m.n.n.l.l.l..                     ",
"                    . ] o.] ] o.[ ] ] .                     ",
"                    . ] ] ] ] ] ] ] ] .                     ",
"                    . ] ( p._ ( ( / / .                     ",
"                    . q.p.r.{ r.s.p.p..                     ",
"                    . , , , , , , , , .                     ",
"                    . , , , , , , , , .                     ",
"                    . ; t.' > u.t.u.u..                     ",
"                    . v.* w.* u.w.* * .                     ",
"                    . * * * * * * * * .                     ",
"                    . & * * * * * * * .                     ",
"                    . x.# x.x.x.x.# # .                     ",
"                    . y.z.z.A.+ @ B.B..                     ",
"                    . + + + + + + + + .                     ",
"                    . . . . . . . . . .                     ",
"                                                            "};
