/* XPM */
static char * spin_xpm[] = {
"16 22 55 1",
" 	c #000828",
".	c #515B7A",
"+	c #4E597A",
"@	c #4D5678",
"#	c #4B5678",
"$	c #49557A",
"%	c #495577",
"&	c #475478",
"*	c #475378",
"=	c #465378",
"-	c #48567B",
";	c #5D6580",
">	c #555E7B",
",	c #525D7A",
"'	c #525C7A",
")	c #505A7A",
"!	c #4E5A7A",
"~	c #4E587A",
"{	c #4D587A",
"]	c #4B577A",
"^	c #485377",
"/	c #545D7A",
"(	c #4D577A",
"_	c #4B567A",
":	c #4B5679",
"<	c #6FB5E4",
"[	c #49567A",
"}	c #47567A",
"|	c #47557A",
"1	c #48557A",
"2	c #495477",
"3	c #485477",
"4	c #3E4B6F",
"5	c #414B6D",
"6	c #3F4A6D",
"7	c #3E496D",
"8	c #3B496D",
"9	c #3A486D",
"0	c #434E71",
"a	c #3F4B6F",
"b	c #3B486D",
"c	c #3D486D",
"d	c #424C70",
"e	c #4C577A",
"f	c #445178",
"g	c #49577A",
"h	c #45557A",
"i	c #45547A",
"j	c #44537A",
"k	c #455277",
"l	c #425077",
"m	c #445378",
"n	c #445276",
"o	c #475376",
"p	c #455377",
"                ",
"  .+@#$%%&**=-  ",
" .;>,'.))!~{]$^ ",
" +>/')!++{(__$% ",
" :.)!~~<{[$$$$% ",
" &+!!~<<<}|||12 ",
" *~~~<<<<<||||3 ",
" *~~<<<_<<<|||3 ",
" *~~~]]__}||||3 ",
" *~~~]]__}||||3 ",
" 45556677899990 ",
" a5555678995bcd ",
" *~~~e]_}||~||3 ",
" *~~~]]_}||~||3 ",
" *~~<<<_<<<~||3 ",
" &+++<<<<<|+|12 ",
" *~~~e<<<||~||3 ",
" *~~~]]<}||~||3 ",
" f1____g}}h_ijk ",
" l&$$$$$||i$jmn ",
"  oo^^^o==p^pn  ",
"                "};
